<?xml version="1.0" standalone="no"?>
<!DOCTYPE svg PUBLIC "-//W3C//DTD SVG 20010904//EN"
 "http://www.w3.org/TR/2001/REC-SVG-20010904/DTD/svg10.dtd">
<svg version="1.0" xmlns="http://www.w3.org/2000/svg"
 width="500.000000pt" height="500.000000pt" viewBox="0 0 500.000000 500.000000"
 preserveAspectRatio="xMidYMid meet">
<metadata>
Created by potrace 1.14, written by Peter Selinger 2001-2017
</metadata>
<g transform="translate(0.000000,500.000000) scale(0.100000,-0.100000)"
fill="#000000" stroke="none">
<path d="M0 4751 l0 -249 25 -4 c38 -8 73 2 78 21 2 10 26 30 53 45 45 25 49
26 61 10 11 -14 10 -21 -2 -34 -8 -9 -15 -22 -15 -28 0 -6 -11 -19 -25 -28
-19 -13 -28 -14 -39 -5 -16 13 -67 5 -78 -13 -4 -6 -5 -19 -2 -28 6 -21 -25
-25 -44 -6 -9 9 -12 -127 -12 -615 0 -495 3 -627 13 -627 6 0 30 6 52 14 60
20 180 14 215 -12 28 -21 60 -73 60 -98 0 -21 46 -28 77 -11 86 47 139 48 186
2 29 -29 37 -44 42 -91 8 -61 9 -61 97 -85 26 -7 57 -21 69 -30 24 -18 25 6
-11 -434 -4 -60 -13 -177 -20 -260 -6 -82 -17 -180 -25 -217 -18 -79 -20 -267
-4 -302 15 -31 44 -40 46 -13 1 10 9 27 17 36 9 10 16 20 16 24 0 3 14 27 31
52 28 41 31 53 26 94 -3 26 -12 60 -20 76 -8 17 -21 42 -27 57 -10 20 -11 110
-5 380 4 194 8 365 10 381 1 15 2 48 3 73 3 59 49 112 97 108 17 -1 35 -3 42
-3 20 -2 50 -54 57 -102 7 -45 7 -45 -34 -65 -60 -29 -55 -56 15 -88 31 -14
61 -23 68 -20 7 2 27 -16 45 -41 27 -38 36 -45 58 -41 15 3 27 6 28 8 2 2 13
25 25 52 25 54 23 99 -9 172 -9 22 -20 60 -24 85 -11 74 -54 141 -106 166 -38
18 -50 30 -69 75 -49 111 -67 144 -97 176 -46 49 -61 157 -29 207 7 11 16 35
20 53 8 39 27 49 60 32 30 -16 42 -8 56 40 10 32 17 40 35 40 24 0 105 50 137
84 9 10 17 27 17 36 0 10 11 25 25 34 25 16 34 46 15 46 -5 0 -10 8 -10 17 0
13 3 14 11 6 8 -8 17 -5 33 13 19 22 24 23 53 12 18 -7 35 -9 39 -5 4 3 -1 28
-12 54 -18 48 -20 55 -23 73 0 6 -10 19 -21 30 -17 17 -18 23 -7 52 7 18 12
58 11 87 -2 46 -6 58 -28 74 -14 10 -26 24 -26 31 0 8 -14 29 -30 47 -36 41
-44 67 -36 114 8 39 36 53 84 39 55 -16 104 -13 132 8 49 36 157 19 209 -32
29 -29 29 -32 27 -116 l-3 -85 31 7 c26 6 29 4 19 -8 -14 -17 -5 -34 22 -41
l20 -5 -20 -1 c-11 0 -26 3 -34 8 -11 7 -18 3 -26 -12 -7 -14 -19 -21 -31 -19
-14 2 -15 0 -6 -6 11 -8 11 -15 -1 -45 -9 -19 -13 -38 -9 -41 3 -3 -1 -6 -9
-6 -18 0 -51 -57 -54 -95 -2 -16 -8 -31 -14 -33 -6 -2 -9 -8 -6 -13 3 -4 -3
-25 -13 -46 -11 -21 -17 -43 -15 -50 6 -17 -59 -73 -78 -67 -23 6 -32 -24 -14
-43 9 -8 22 -12 31 -9 9 3 12 2 8 -5 -3 -6 -17 -8 -30 -5 -20 5 -24 3 -24 -17
0 -25 40 -110 41 -87 1 32 17 -28 22 -83 4 -45 2 -59 -10 -66 -14 -7 -14 -14
2 -65 12 -37 23 -56 34 -56 12 0 13 -2 3 -8 -10 -7 -11 -19 -3 -53 6 -25 7
-56 4 -69 -10 -38 -29 -70 -37 -62 -14 14 7 -53 32 -101 19 -36 22 -51 13 -56
-7 -4 -12 -16 -12 -27 0 -34 25 -124 34 -124 5 0 7 24 4 53 -2 31 2 65 10 85
7 18 11 37 8 42 -3 4 1 11 7 13 10 4 10 8 -1 15 -11 8 -12 14 -4 24 13 16 22
249 9 241 -5 -4 -5 0 0 8 13 21 14 39 2 39 -7 0 -7 4 -1 13 5 6 10 33 11 60 1
37 -2 47 -14 47 -13 0 -14 3 -5 14 10 12 8 16 -10 21 -17 6 -19 9 -8 16 9 6
10 9 2 9 -7 0 -17 -8 -22 -17 -23 -40 -11 18 14 67 26 50 32 75 16 66 -11 -7
-3 56 9 68 14 14 12 26 -5 26 -18 0 -20 16 -4 26 8 4 7 9 -2 15 -9 6 -10 12
-4 17 6 4 16 14 23 23 11 14 9 16 -15 12 -28 -4 -28 -4 -8 14 11 10 28 32 37
48 10 17 22 29 28 27 5 -1 10 3 10 9 0 7 11 8 31 4 21 -5 29 -4 25 3 -8 13 21
29 49 28 11 -1 22 2 25 6 3 4 19 9 35 11 22 3 29 9 27 21 -3 15 -1 16 20 3 28
-18 84 -15 122 5 l29 15 -41 23 c-23 13 -39 27 -36 32 6 10 53 0 73 -16 11 -8
13 -8 7 2 -9 16 4 15 26 -2 10 -7 15 -16 11 -20 -4 -4 1 -4 12 0 15 6 17 4 12
-10 -4 -9 -3 -15 2 -11 5 3 11 0 13 -7 2 -6 11 -13 19 -14 7 -2 26 -6 42 -10
33 -8 36 8 6 30 -22 15 -17 41 7 32 17 -6 18 6 3 21 -6 6 -9 18 -7 27 2 13 7
14 27 3 14 -6 27 -19 29 -27 5 -13 3 -13 -11 -1 -10 8 -17 9 -17 3 0 -26 67
-41 76 -17 3 8 11 12 16 9 6 -4 8 2 3 17 -5 18 -4 21 4 9 6 -8 8 -22 5 -32 -2
-9 1 -20 7 -24 8 -4 9 -3 5 4 -4 7 -2 12 3 12 6 0 11 -10 12 -22 0 -22 1 -22
8 -3 5 11 7 23 4 28 -2 4 1 7 7 7 7 0 14 -9 17 -20 9 -32 22 -23 17 13 -2 17
-1 26 2 19 3 -6 10 -10 15 -6 5 3 9 0 9 -6 0 -7 11 -26 25 -42 14 -16 23 -33
20 -38 -9 -14 35 -22 50 -10 8 7 15 24 16 39 1 18 5 10 14 -24 7 -27 13 -42
14 -32 1 24 21 11 21 -14 0 -10 6 -19 14 -19 9 0 12 -8 8 -25 -3 -15 2 -33 11
-43 10 -11 14 -27 10 -40 -3 -13 -1 -22 6 -22 6 0 11 -11 11 -25 0 -14 5 -25
10 -25 6 0 10 -10 10 -22 0 -12 3 -18 7 -15 9 10 35 -31 28 -43 -3 -6 1 -10
10 -10 9 0 14 -4 11 -9 -4 -5 -7 -27 -8 -50 -1 -22 -5 -38 -10 -35 -4 3 -8 -2
-8 -10 0 -8 -9 -18 -20 -21 -12 -4 -20 -14 -18 -23 1 -9 -3 -27 -10 -39 -11
-20 -10 -23 6 -23 12 0 21 -11 27 -32 8 -26 16 -34 38 -36 25 -3 40 -22 17
-22 -5 0 -10 -5 -10 -11 0 -6 9 -9 19 -6 13 3 18 0 17 -10 -4 -25 -32 -35 -50
-17 -15 14 -16 14 -16 0 0 -9 -6 -16 -12 -17 -80 -4 -148 -28 -148 -52 0 -8
-4 -7 -10 3 -7 12 -10 11 -16 -5 -5 -11 -3 -20 4 -23 7 -2 12 -8 12 -13 0 -4
-6 -6 -14 -3 -15 6 -16 -11 -3 -32 4 -8 -1 -11 -17 -10 -17 1 -23 6 -21 18 3
11 -1 15 -11 11 -9 -3 -14 2 -15 13 0 12 -3 14 -6 6 -3 -7 0 -19 7 -27 16 -19
-4 -55 -31 -55 -36 0 -45 -21 -46 -100 -1 -41 -7 -116 -15 -167 -8 -53 -11
-99 -6 -107 5 -9 11 -45 15 -81 5 -58 3 -70 -16 -96 -15 -20 -20 -37 -15 -51
6 -19 7 -20 16 -4 12 21 28 12 28 -17 0 -40 3 -57 12 -57 4 0 8 6 9 13 0 6 7
-3 15 -21 10 -23 20 -32 30 -28 8 3 17 -1 20 -9 4 -8 9 -13 13 -11 3 2 11 -2
17 -9 10 -9 0 -12 -42 -14 -30 -1 -65 -6 -78 -11 -13 -5 -26 -6 -29 -3 -3 3
-11 2 -18 -2 -8 -6 -6 -11 7 -19 23 -13 25 -13 74 -15 31 -1 40 -5 40 -18 1
-17 1 -17 11 0 14 24 65 23 72 -2 2 -10 0 -26 -5 -35 -10 -18 -53 -22 -64 -5
-4 7 -9 7 -13 2 -3 -6 -30 -13 -58 -16 l-53 -6 -1 32 -1 32 -7 -30 c-5 -25
-12 -31 -39 -33 -58 -6 -23 -22 48 -22 51 0 69 -4 74 -15 3 -8 12 -15 21 -15
22 0 18 -31 -5 -37 -11 -3 -20 -12 -20 -20 0 -8 6 -13 12 -11 7 3 19 -2 27 -9
8 -8 21 -13 30 -10 9 2 22 -2 29 -10 18 -19 38 -17 22 2 -9 10 -9 15 -1 15 6
0 11 -5 11 -11 0 -5 6 -7 12 -3 10 6 10 5 1 -8 -7 -8 -10 -18 -6 -22 4 -4 0
-4 -10 0 -14 5 -16 2 -11 -12 4 -11 13 -24 21 -31 8 -6 12 -16 8 -22 -4 -7 3
-11 17 -11 17 0 19 -3 9 -9 -9 -6 -10 -11 -2 -15 6 -4 20 0 32 8 22 15 49 12
49 -6 0 -6 -6 -5 -15 2 -17 14 -21 0 -5 -16 13 -13 2 -44 -15 -44 -7 0 -18 -6
-25 -14 -6 -8 -19 -12 -27 -9 -11 4 -14 2 -9 -5 5 -8 0 -11 -16 -8 -14 2 -30
-5 -40 -17 -19 -21 -24 -42 -10 -33 5 3 4 -10 -2 -29 -6 -19 -17 -35 -23 -35
-7 0 -13 -9 -13 -20 0 -13 -7 -20 -19 -20 -10 0 -21 -7 -25 -15 -3 -8 -12 -12
-21 -9 -8 3 -15 1 -15 -5 0 -6 -7 -11 -15 -11 -8 0 -15 5 -15 10 0 6 -5 10
-11 10 -5 0 -7 -5 -3 -11 5 -8 1 -8 -13 0 -14 7 -23 7 -30 0 -12 -12 -65 -20
-58 -8 8 13 -19 17 -40 6 -23 -13 -48 -15 -55 -6 -10 14 -55 14 -52 1 1 -8 -2
-11 -10 -6 -7 3 -1 -5 15 -20 15 -15 27 -30 27 -34 0 -4 11 -12 25 -19 14 -6
23 -8 20 -4 -2 5 7 6 22 3 23 -4 24 -6 9 -17 -15 -11 -14 -13 6 -19 13 -3 36
-6 51 -6 16 0 26 -4 23 -8 -4 -7 29 -12 96 -15 9 -1 15 -5 12 -8 -6 -11 54
-15 99 -8 20 4 40 2 43 -2 3 -5 18 -9 35 -9 17 0 28 -5 26 -12 -1 -6 9 -17 23
-25 14 -7 22 -13 17 -13 -4 0 -1 -15 7 -34 9 -22 11 -37 4 -44 -6 -6 -6 -12 0
-16 14 -8 72 18 102 46 28 25 80 53 94 49 5 -1 6 5 2 14 -3 9 -2 13 4 10 6 -3
16 -3 23 2 6 4 21 8 32 8 12 0 39 12 60 25 22 13 45 25 51 25 6 0 19 8 28 18
20 20 41 23 30 4 -4 -6 5 -1 19 12 15 14 27 27 27 29 0 3 -9 -3 -20 -13 -11
-10 -20 -13 -20 -8 0 11 22 23 49 29 8 1 17 8 21 15 4 6 13 9 19 5 7 -5 8 -1
4 10 -5 14 -3 16 12 10 11 -4 16 -4 12 0 -4 4 -2 13 4 21 10 11 15 11 27 1 8
-7 18 -13 21 -13 3 0 5 -3 4 -6 -1 -3 5 -6 13 -6 12 0 12 3 -1 17 -20 22 -6
34 16 14 11 -10 19 -12 24 -4 4 6 1 9 -7 8 -7 -2 -12 2 -11 9 3 14 -20 11 -39
-5 -12 -9 -15 -9 -15 3 0 8 4 12 8 10 3 -3 12 2 19 10 7 8 16 12 21 9 5 -3 8
0 7 8 -2 7 3 12 9 11 7 -2 12 2 10 9 -1 6 10 18 26 25 15 8 27 19 27 24 0 6 5
7 10 4 6 -3 10 -2 10 3 0 6 13 24 29 40 21 23 31 28 39 20 9 -9 10 -6 7 10 -2
12 1 22 6 22 17 0 99 93 99 112 0 10 -9 20 -22 22 -34 7 -109 18 -143 20 -48
4 -51 6 -32 17 9 5 22 7 27 4 5 -3 7 0 5 8 -3 7 1 27 10 43 17 32 19 48 6 40
-4 -3 -6 6 -3 19 2 14 8 25 13 25 5 0 9 12 9 26 0 14 4 23 10 19 6 -3 10 -2
10 4 0 5 9 13 20 16 30 10 24 21 -10 19 -41 -3 -39 34 3 49 22 8 22 39 0 36
-31 -3 -36 1 -23 16 7 8 16 12 21 9 5 -3 9 0 9 6 0 6 6 8 13 5 6 -3 3 2 -9 12
l-21 18 21 28 c15 21 21 43 21 83 0 43 3 54 16 54 18 0 25 23 58 191 22 112
25 171 11 204 -5 11 -9 16 -9 11 -1 -5 -8 -3 -16 4 -18 15 -3 40 22 40 11 0
14 7 10 27 -3 15 -1 37 3 49 6 16 5 26 -6 34 -7 7 -14 22 -14 34 0 12 -6 28
-12 34 -9 9 -13 44 -13 103 0 67 -3 88 -12 84 -15 -5 -17 11 -3 20 6 3 10 15
10 27 0 15 -4 18 -16 14 -14 -5 -15 -4 -4 9 17 20 23 82 10 90 -6 4 -7 11 -4
17 5 7 2 8 -5 3 -9 -5 -10 -10 -2 -18 6 -6 11 -16 11 -21 0 -6 -7 0 -16 12 -8
12 -12 28 -8 34 5 7 -14 -6 -41 -29 -43 -36 -125 -88 -125 -80 0 2 41 36 90
76 81 65 90 76 90 106 0 38 -14 53 -26 27 -4 -9 -6 -20 -6 -24 1 -5 -5 -8 -13
-8 -8 0 -15 -4 -15 -8 0 -4 -15 -13 -34 -20 -18 -7 -41 -21 -51 -32 -10 -11
-23 -20 -29 -20 -6 0 -4 5 4 10 13 9 13 10 0 11 -8 1 -19 1 -25 0 -5 -1 17 23
49 53 41 37 55 55 45 59 -11 4 -10 6 3 6 18 1 68 77 68 104 0 9 -11 19 -25 23
-24 6 -30 32 -6 27 21 -5 11 13 -27 49 -37 35 -39 36 -55 18 -8 -10 -12 -22
-9 -26 4 -4 2 -4 -5 0 -7 4 -19 -4 -29 -19 -9 -14 -21 -25 -27 -25 -5 0 -2 9
8 20 16 18 16 20 2 20 -21 0 -21 7 -2 26 12 12 15 12 15 2 0 -10 3 -9 10 2 7
11 4 16 -12 20 -12 3 -22 13 -24 23 -2 15 6 19 33 16 4 0 10 8 14 18 5 11 7 2
7 -25 -1 -23 2 -45 5 -49 4 -3 7 3 7 15 0 11 4 24 10 27 16 10 6 39 -28 82
-18 23 -32 44 -32 47 0 10 -130 136 -141 136 -5 0 -9 5 -9 10 0 6 -9 10 -20
10 -11 0 -45 25 -75 55 -30 30 -61 55 -70 55 -8 0 -15 9 -15 19 0 24 -54 70
-77 66 -10 -2 -21 -4 -25 -4 -5 -1 -8 -10 -8 -20 0 -18 -4 -18 -32 -9 -105 33
-236 65 -253 62 -34 -6 -85 -6 -200 0 -78 4 -111 2 -117 -7 -4 -7 -28 -10 -59
-9 -29 1 -55 -1 -58 -5 -11 -15 -54 -48 -48 -37 4 7 -3 24 -14 39 -16 20 -27
25 -45 21 -52 -13 -77 34 -30 55 20 10 30 8 54 -10 36 -25 39 -25 58 -7 7 8
22 12 32 9 13 -3 34 10 65 40 46 45 70 99 60 136 -5 19 -7 19 -34 6 -61 -32
-162 -10 -192 43 -17 28 -18 39 -8 77 21 82 120 75 -1005 75 l-1004 0 0 -249z
m985 -105 c35 -18 45 -33 45 -68 0 -34 -33 -58 -81 -58 -31 0 -38 4 -49 30
-14 33 -8 71 16 94 19 20 34 20 69 2z m1035 -158 c0 -18 -2 -20 -9 -8 -6 8 -7
18 -5 22 9 14 14 9 14 -14z m-26 -19 c-4 -6 -11 -6 -20 2 -21 17 -17 31 6 19
11 -6 18 -15 14 -21z m906 -161 c-12 -23 -31 -54 -42 -68 l-20 -25 7 25 c9 28
68 120 74 115 2 -2 -7 -23 -19 -47z m-1135 31 c10 -14 1 -21 -19 -13 -9 3 -13
10 -10 15 7 12 21 11 29 -2z m819 -233 c-4 -11 -11 -37 -15 -56 -5 -28 -7 -22
-5 26 1 45 4 60 14 56 8 -3 10 -12 6 -26z m-774 -26 c6 -11 8 -20 6 -20 -3 0
-10 9 -16 20 -6 11 -8 20 -6 20 3 0 10 -9 16 -20z m647 -22 c-3 -7 -5 -2 -5
12 0 14 2 19 5 13 2 -7 2 -19 0 -25z m90 0 c-3 -7 -5 -2 -5 12 0 14 2 19 5 13
2 -7 2 -19 0 -25z m-1860 -127 c68 -83 65 -73 47 -132 -9 -30 -23 -68 -31 -84
-9 -17 -14 -40 -11 -50 3 -17 12 -20 58 -20 l54 0 27 -50 c32 -61 46 -167 24
-185 -8 -6 -19 -9 -25 -5 -6 4 -26 1 -43 -6 -56 -23 -96 -59 -107 -98 -32
-119 -119 -171 -221 -130 -45 17 -57 18 -77 8 -27 -15 -42 -1 -42 40 0 14 -10
45 -22 70 -18 37 -21 60 -19 131 2 75 -1 88 -18 104 -20 18 -21 18 -56 -3 -47
-27 -56 -27 -89 8 -26 27 -28 34 -21 77 5 36 15 55 46 85 22 21 48 58 58 82
21 48 32 58 81 77 71 25 140 64 140 76 0 23 52 49 110 54 81 8 95 3 137 -49z
m2583 -31 c-12 -16 -24 -30 -26 -30 -3 0 4 14 16 30 12 17 24 30 26 30 3 0 -4
-13 -16 -30z m129 -207 c-21 -26 -53 -52 -64 -53 -5 0 8 16 30 35 45 38 54 43
34 18z m40 -65 c-12 -25 -77 -83 -84 -76 -5 5 76 95 87 97 4 0 3 -9 -3 -21z
m25 -50 c-15 -49 -23 -64 -49 -93 l-27 -30 22 44 c12 23 17 40 11 36 -18 -10
-13 5 12 35 27 35 41 38 31 8z m-59 -28 c-10 -11 -23 -20 -28 -20 -6 0 -2 9 8
20 10 11 23 20 28 20 6 0 2 -9 -8 -20z m-4 -37 c-5 -10 -24 -31 -42 -48 -31
-29 -31 -28 5 18 40 49 54 60 37 30z m45 -32 c-4 -5 0 -11 6 -14 9 -3 3 -23
-22 -70 -21 -39 -38 -61 -42 -54 -4 6 -3 14 2 17 5 3 14 18 19 33 8 20 8 26 0
22 -6 -4 -1 11 10 34 12 23 24 41 27 41 3 0 3 -4 0 -9z m-341 -83 c-4 -17 -2
-28 4 -28 6 0 8 6 5 14 -3 8 0 17 7 22 9 5 11 -2 6 -31 l-6 -38 25 24 c24 22
25 22 42 5 12 -14 14 -20 5 -23 -8 -3 -11 -14 -7 -29 4 -15 2 -24 -6 -24 -7 0
-9 -8 -5 -20 4 -12 2 -20 -5 -20 -7 0 -8 -6 -2 -17 13 -26 12 -166 -2 -176 -7
-6 -4 -6 8 -3 13 5 17 2 12 -9 -3 -8 0 -14 6 -12 17 3 22 -34 6 -44 -10 -7
-10 -9 0 -9 9 0 11 -7 7 -19 -3 -11 4 -60 15 -110 12 -50 19 -95 16 -100 -4
-5 -2 -13 4 -16 7 -4 8 -11 1 -18 -10 -13 12 -41 23 -30 3 4 6 1 6 -5 0 -6 -5
-14 -11 -18 -6 -3 -9 -17 -6 -30 2 -13 1 -21 -3 -19 -13 8 -17 -51 -4 -63 25
-23 -1 -212 -27 -196 -9 5 -29 -36 -29 -58 0 -6 11 -8 24 -6 17 4 23 1 19 -9
-3 -7 -8 -11 -12 -9 -3 2 -15 -2 -26 -11 -19 -14 -19 -14 8 -8 25 7 27 5 27
-24 0 -29 -2 -30 -37 -28 -26 1 -37 -2 -36 -10 2 -7 -2 -13 -7 -13 -6 0 -10
-10 -10 -22 0 -13 -5 -30 -10 -38 -8 -12 -11 -11 -16 8 -6 19 -9 21 -23 10
-14 -12 -14 -11 -2 4 7 10 17 15 22 12 5 -3 9 2 9 10 0 9 4 16 8 16 5 0 9 17
10 37 1 21 6 39 12 41 6 2 6 11 -2 25 -10 20 -10 21 6 8 14 -12 16 -12 10 4
-5 12 -4 16 3 12 13 -8 23 15 23 51 l0 26 -16 -22 c-8 -12 -20 -20 -25 -17 -5
4 -9 -3 -9 -14 0 -14 -5 -19 -15 -15 -8 4 -15 13 -15 21 0 9 5 11 13 7 9 -6 9
-4 1 7 -17 21 -28 106 -24 187 1 9 -2 31 -5 47 -9 49 -7 102 5 125 7 12 9 34
6 48 -3 15 -3 21 0 15 9 -20 20 -15 20 7 0 11 -4 20 -9 20 -5 0 -5 9 -2 20 7
21 16 105 18 155 0 29 -13 65 -54 150 -10 22 -19 45 -19 52 0 6 -9 19 -21 27
-12 8 -18 19 -14 25 3 6 1 11 -5 11 -6 0 -8 5 -3 12 4 7 8 20 8 28 1 8 2 26 3
39 2 18 6 22 22 18 16 -4 20 0 20 19 0 13 5 24 11 24 6 0 8 7 5 16 -3 8 -2 12
4 9 5 -3 7 10 4 32 -4 34 -3 35 6 14 6 -14 8 -37 5 -53z m-35 2 c0 -5 -2 -10
-4 -10 -3 0 -8 5 -11 10 -3 6 -1 10 4 10 6 0 11 -4 11 -10z m-300 -160 c-8 -5
-5 -9 9 -13 11 -2 21 -1 23 3 2 5 11 -3 21 -16 15 -21 16 -24 2 -24 -8 0 -15
5 -15 12 0 9 -3 9 -12 0 -7 -7 -29 -9 -57 -6 -31 4 -41 2 -33 -4 10 -7 4 -11
-25 -16 -21 -4 -51 -9 -68 -13 -27 -5 -28 -4 -16 11 7 9 28 20 45 25 25 7 26
9 9 10 -36 2 -27 18 15 28 44 11 119 13 102 3z m-83 -120 c-2 -8 -9 -14 -16
-12 -10 2 -12 -5 -7 -23 6 -24 5 -26 -16 -19 -79 24 -88 42 -37 73 25 15 35
16 55 7 13 -6 23 -18 21 -26z m-49 -74 c7 -4 19 -5 27 -2 8 3 17 1 20 -4 4 -6
22 -10 41 -10 25 0 34 -4 34 -16 0 -12 4 -14 13 -7 18 15 57 23 57 12 0 -5 -9
-9 -19 -9 -11 0 -26 -6 -33 -12 -44 -42 -172 -17 -197 38 -10 22 -9 24 17 21
15 -2 34 -7 40 -11z m189 -102 c-3 -3 -12 -4 -19 -1 -8 3 -5 6 6 6 11 1 17 -2
13 -5z m-120 -16 c2 6 18 12 34 12 17 0 28 -4 25 -8 -3 -5 19 -15 49 -22 56
-13 72 -30 55 -58 -9 -16 -9 -16 -10 1 0 9 -5 17 -11 17 -6 0 -9 -6 -6 -14 3
-8 1 -17 -6 -20 -7 -2 1 -5 16 -5 24 -1 27 -4 22 -21 -3 -11 -2 -20 4 -20 5 0
8 -9 6 -21 -3 -14 2 -23 15 -26 11 -3 16 -11 13 -19 -3 -8 0 -14 6 -14 6 0 11
-7 11 -16 0 -10 -5 -14 -16 -10 -8 3 -12 2 -9 -4 3 -6 0 -10 -8 -10 -9 0 -14
-10 -14 -26 0 -17 4 -24 13 -20 8 3 14 1 14 -4 0 -6 -7 -10 -15 -10 -17 0 -21
-35 -5 -45 6 -3 8 -22 6 -40 -3 -19 -1 -37 4 -40 4 -3 2 -31 -6 -63 -8 -31
-20 -77 -26 -102 -6 -25 -15 -50 -20 -57 -5 -7 -7 -16 -4 -22 3 -5 2 -11 -2
-13 -5 -1 -23 -22 -39 -46 -29 -40 -32 -41 -48 -26 -13 13 -15 27 -9 68 3 28
7 70 8 94 0 23 5 42 9 42 5 0 5 5 2 10 -3 6 3 10 14 10 15 0 19 4 14 17 -4 10
-2 14 4 10 18 -11 45 23 39 47 -3 12 -6 31 -6 43 0 13 -27 47 -70 89 -67 66
-84 97 -57 107 9 3 9 7 0 17 -9 10 -9 19 3 41 9 18 10 29 4 29 -16 0 -33 51
-20 64 5 5 10 18 10 28 0 12 7 18 22 18 26 0 13 16 -16 22 -11 1 -21 10 -23
18 -4 13 -3 13 7 0 9 -11 13 -12 17 -2z m673 -537 c0 -4 -3 -11 -7 -14 -8 -9
-34 13 -28 24 6 9 35 1 35 -10z m-820 -46 c0 -27 -4 -35 -18 -35 -25 0 -41 18
-35 40 4 17 17 24 46 29 4 0 7 -15 7 -34z m560 -45 c0 -5 -5 -10 -11 -10 -5 0
-7 5 -4 10 3 6 8 10 11 10 2 0 4 -4 4 -10z m-707 -27 c-7 -2 -19 -2 -25 0 -7
3 -2 5 12 5 14 0 19 -2 13 -5z m654 -35 c-3 -8 -6 -5 -6 6 -1 11 2 17 5 13 3
-3 4 -12 1 -19z m146 -98 c-7 -28 -13 -25 -13 6 0 14 4 23 9 20 5 -3 7 -15 4
-26z m14 -32 c-3 -8 -6 -5 -6 6 -1 11 2 17 5 13 3 -3 4 -12 1 -19z m-155 -60
c-7 -7 -12 -8 -12 -2 0 14 12 26 19 19 2 -3 -1 -11 -7 -17z"/>
<path d="M3125 2520 c-3 -5 -1 -10 4 -10 6 0 11 5 11 10 0 6 -2 10 -4 10 -3 0
-8 -4 -11 -10z"/>
<path d="M3180 2500 c0 -5 5 -10 11 -10 5 0 7 5 4 10 -3 6 -8 10 -11 10 -2 0
-4 -4 -4 -10z"/>
<path d="M3220 2475 c0 -5 5 -17 10 -25 5 -8 10 -10 10 -5 0 6 -5 17 -10 25
-5 8 -10 11 -10 5z"/>
<path d="M3111 2454 c0 -11 3 -14 6 -6 3 7 2 16 -1 19 -3 4 -6 -2 -5 -13z"/>
<path d="M3151 2414 c0 -11 3 -14 6 -6 3 7 2 16 -1 19 -3 4 -6 -2 -5 -13z"/>
<path d="M3130 2383 c0 -21 3 -24 9 -14 5 8 7 20 4 28 -8 21 -13 15 -13 -14z"/>
<path d="M2745 2620 c-3 -5 1 -10 10 -10 9 0 13 5 10 10 -3 6 -8 10 -10 10 -2
0 -7 -4 -10 -10z"/>
<path d="M2273 4943 c-19 -7 4 -59 32 -71 14 -7 25 -18 25 -26 0 -8 4 -17 9
-21 11 -6 3 61 -11 87 -10 21 -39 37 -55 31z"/>
<path d="M2026 4078 c10 -15 25 -28 33 -28 8 0 12 1 10 3 -2 1 -17 13 -33 27
l-29 25 19 -27z"/>
<path d="M2330 4093 c0 -6 8 -17 18 -24 16 -13 16 -13 2 6 -8 11 -16 22 -17
24 -2 2 -3 0 -3 -6z"/>
<path d="M1397 3815 c-8 -20 -4 -29 11 -24 5 2 6 13 2 23 -6 19 -7 19 -13 1z"/>
<path d="M3428 3803 c7 -3 16 -2 19 1 4 3 -2 6 -13 5 -11 0 -14 -3 -6 -6z"/>
<path d="M1411 3754 c0 -11 3 -14 6 -6 3 7 2 16 -1 19 -3 4 -6 -2 -5 -13z"/>
<path d="M3334 3718 l-19 -23 23 19 c21 18 27 26 19 26 -2 0 -12 -10 -23 -22z"/>
<path d="M2690 3380 c0 -5 7 -7 15 -4 8 4 15 8 15 10 0 2 -7 4 -15 4 -8 0 -15
-4 -15 -10z"/>
<path d="M1940 3300 c0 -6 -4 -9 -9 -6 -10 6 -71 -15 -71 -25 0 -4 -12 -10
-27 -14 -41 -10 -11 -23 75 -31 80 -7 169 11 138 28 -9 5 -18 8 -21 8 -3 -1
-14 8 -23 19 -20 23 -62 37 -62 21z"/>
<path d="M1885 3177 c-22 -7 -51 -20 -65 -29 -28 -20 -55 -24 -44 -6 4 7 3 8
-5 4 -6 -4 -9 -11 -6 -16 3 -5 1 -11 -5 -15 -17 -10 -11 -25 10 -25 10 0 27 8
37 19 17 17 55 41 67 41 3 0 6 -10 6 -22 0 -50 42 -74 100 -58 33 9 40 15 40
35 0 15 6 25 14 25 26 0 30 -23 8 -38 -27 -18 -28 -32 -4 -32 25 0 65 39 58
57 -3 8 -6 21 -6 29 0 37 -120 55 -205 31z m42 -43 c7 -18 -17 -38 -31 -24
-11 11 -1 40 14 40 6 0 13 -7 17 -16z"/>
<path d="M1561 2814 c0 -11 3 -14 6 -6 3 7 2 16 -1 19 -3 4 -6 -2 -5 -13z"/>
<path d="M3520 2796 c0 -2 7 -7 16 -10 8 -3 12 -2 9 4 -6 10 -25 14 -25 6z"/>
<path d="M2108 2653 c6 -2 18 -2 25 0 6 3 1 5 -13 5 -14 0 -19 -2 -12 -5z"/>
<path d="M1863 2560 c-40 -60 -47 -88 -33 -124 13 -36 19 -31 24 21 2 22 10
53 18 69 14 27 32 85 26 83 -2 0 -17 -22 -35 -49z"/>
<path d="M2216 2572 c-7 -12 18 -81 32 -87 22 -8 32 4 32 40 0 24 -6 38 -19
45 -23 12 -38 13 -45 2z"/>
<path d="M1581 2464 c0 -11 3 -14 6 -6 3 7 2 16 -1 19 -3 4 -6 -2 -5 -13z"/>
<path d="M1953 2394 c-15 -7 43 -59 80 -73 l26 -10 -19 42 c-15 34 -24 42 -47
44 -15 1 -33 0 -40 -3z"/>
<path d="M1491 2348 c0 -16 -5 -28 -9 -28 -15 0 -40 -184 -42 -310 -2 -174 -4
-205 -24 -375 -27 -232 -36 -410 -22 -433 3 -6 0 -13 -6 -15 -10 -4 -10 -6 0
-6 35 -2 202 96 185 108 -9 7 -9 12 -15 457 -3 187 -8 345 -11 351 -4 6 -7 59
-8 119 -1 60 -5 98 -8 84 -6 -20 -9 -22 -16 -10 -5 8 -12 30 -16 50 -6 31 -7
32 -8 8z m4 -58 c3 -5 1 -10 -4 -10 -6 0 -11 5 -11 10 0 6 2 10 4 10 3 0 8 -4
11 -10z m22 -42 c-3 -8 -6 -5 -6 6 -1 11 2 17 5 13 3 -3 4 -12 1 -19z"/>
<path d="M1601 2354 c0 -11 3 -14 6 -6 3 7 2 16 -1 19 -3 4 -6 -2 -5 -13z"/>
<path d="M2117 2304 c-13 -13 -7 -22 17 -26 15 -3 27 0 30 8 3 8 1 14 -3 14
-5 0 -16 2 -23 5 -8 3 -17 2 -21 -1z"/>
<path d="M1640 2215 c0 -8 4 -15 10 -15 5 0 7 7 4 15 -4 8 -8 15 -10 15 -2 0
-4 -7 -4 -15z"/>
<path d="M1650 2185 c0 -15 18 -40 24 -34 3 3 -1 14 -9 25 -8 10 -14 15 -15 9z"/>
<path d="M1685 2110 c3 -5 11 -10 16 -10 6 0 7 5 4 10 -3 6 -11 10 -16 10 -6
0 -7 -4 -4 -10z"/>
<path d="M1803 1965 c7 -14 18 -25 24 -25 8 0 4 10 -9 25 -27 31 -29 31 -15 0z"/>
<path d="M1835 1930 c-17 -7 -17 -9 -3 -9 10 -1 25 -12 34 -26 9 -14 21 -25
28 -24 7 0 6 2 -1 6 -7 2 -13 11 -13 19 0 8 -5 14 -11 14 -6 0 -9 7 -5 15 6
17 0 18 -29 5z"/>
<path d="M1898 1853 c7 -3 16 -2 19 1 4 3 -2 6 -13 5 -11 0 -14 -3 -6 -6z"/>
<path d="M1956 1795 c4 -8 17 -18 30 -21 13 -3 21 -10 18 -15 -3 -5 4 -9 15
-9 12 0 21 4 21 9 0 13 -26 32 -33 24 -4 -3 -7 -1 -7 5 0 6 -7 9 -15 6 -8 -4
-15 -1 -15 5 0 6 -4 11 -10 11 -5 0 -7 -7 -4 -15z"/>
<path d="M3345 1750 c10 -11 20 -20 23 -20 3 0 -3 9 -13 20 -10 11 -20 20 -23
20 -3 0 3 -9 13 -20z"/>
<path d="M0 1632 c0 -58 11 -82 38 -82 12 0 13 10 8 51 -7 50 -24 89 -38 89
-5 0 -8 -26 -8 -58z"/>
<path d="M3667 1562 c-17 -15 -55 -49 -83 -77 -29 -27 -92 -88 -141 -135 -66
-64 -78 -78 -48 -60 64 38 185 131 185 141 0 6 4 8 8 5 4 -2 14 4 21 16 10 16
10 19 -1 13 -7 -3 -4 1 6 9 26 21 42 20 25 -1 -13 -15 -12 -15 8 -3 15 10 19
18 13 25 -10 12 26 52 64 72 17 10 17 10 -3 16 -14 3 -32 -3 -54 -21z"/>
<path d="M1971 1539 c-26 -69 -86 -211 -109 -259 -27 -57 -36 -135 -16 -148 6
-4 10 -18 9 -32 -1 -14 4 -40 11 -59 8 -18 14 -69 14 -112 0 -43 5 -81 10 -84
6 -4 10 9 10 32 0 62 12 69 52 31 19 -18 63 -66 96 -107 34 -41 89 -98 121
-127 l59 -54 17 26 c9 14 14 28 11 32 -3 3 -6 2 -6 -2 0 -12 -29 21 -66 74
-25 36 -36 65 -39 102 -7 64 -15 92 -71 233 -32 81 -46 135 -54 205 -24 210
-32 265 -35 269 -3 2 -9 -7 -14 -20z"/>
<path d="M3700 1540 c-14 -11 -19 -20 -12 -20 7 0 22 9 34 20 28 26 11 26 -22
0z"/>
<path d="M725 1279 c-209 -17 -425 -72 -425 -108 0 -10 4 -21 10 -27 5 -5 10
-25 12 -43 3 -40 17 -47 148 -81 47 -12 93 -26 103 -31 10 -5 21 -7 26 -5 12
8 84 -14 103 -31 13 -12 16 -27 14 -62 -3 -25 -7 -53 -11 -62 -3 -10 -3 -19 2
-22 11 -7 168 71 214 105 19 14 53 35 75 46 l42 21 -13 58 c-22 102 -67 180
-122 214 -47 29 -85 35 -178 28z"/>
<path d="M2396 1115 c-19 -28 -20 -35 -6 -35 6 0 9 3 8 8 -1 4 3 17 10 30 17
30 8 28 -12 -3z"/>
<path d="M3164 1096 c-22 -19 -50 -44 -64 -56 -18 -15 -19 -18 -5 -11 23 12
123 100 114 101 -4 0 -24 -15 -45 -34z"/>
<path d="M3039 994 l-24 -27 28 18 c15 9 27 21 27 26 0 14 -5 11 -31 -17z"/>
<path d="M1747 928 c4 -7 8 -20 8 -28 0 -8 10 -15 23 -16 27 -2 28 7 2 24 -12
7 -18 17 -15 22 3 6 -1 10 -10 10 -10 0 -13 -4 -8 -12z"/>
<path d="M2700 925 c0 -8 -11 -17 -25 -21 -14 -3 -25 -12 -25 -20 0 -8 -15
-20 -32 -28 -18 -8 -27 -15 -20 -15 22 -2 84 28 78 38 -3 5 7 14 23 21 19 7
28 17 24 26 -7 19 -23 18 -23 -1z"/>
<path d="M1780 873 c0 -3 7 -11 15 -20 11 -11 13 -19 5 -27 -10 -13 -4 -26 12
-26 5 0 6 6 2 13 -5 7 0 6 11 -3 10 -8 16 -10 12 -3 -4 6 -1 13 5 16 17 6 -26
54 -47 54 -8 0 -15 -2 -15 -4z"/>
<path d="M2605 830 c-14 -6 -16 -9 -5 -10 22 -3 44 1 52 9 11 10 -23 10 -47 1z"/>
<path d="M4746 821 c-3 -5 -16 -7 -29 -4 -13 3 -18 1 -11 -4 6 -4 10 -25 9
-45 -1 -31 2 -38 17 -38 15 0 17 6 13 36 -4 32 -2 35 18 29 20 -6 21 -5 5 8
-10 8 -15 17 -11 20 3 4 4 7 0 7 -3 0 -8 -4 -11 -9z"/>
<path d="M4600 800 c-18 -12 -2 -12 25 0 13 6 15 9 5 9 -8 0 -22 -4 -30 -9z"/>
<path d="M4650 795 c0 -8 4 -15 9 -15 5 0 14 7 21 15 10 13 9 15 -9 15 -12 0
-21 -6 -21 -15z"/>
<path d="M1867 768 c-5 -34 -2 -46 9 -35 10 10 14 67 5 67 -5 0 -11 -15 -14
-32z"/>
<path d="M4545 790 c-19 -8 -19 -9 2 -9 17 -1 21 -5 16 -18 -3 -10 -3 -15 1
-12 9 9 16 49 8 48 -4 0 -16 -4 -27 -9z"/>
<path d="M2550 760 c-11 -8 -5 -9 20 -5 19 3 36 8 39 11 9 9 -45 3 -59 -6z"/>
<path d="M4827 759 c7 -7 15 -10 18 -7 3 3 -2 9 -12 12 -14 6 -15 5 -6 -5z"/>
<path d="M1822 734 c10 -10 20 -16 22 -13 3 3 -5 11 -17 18 -21 13 -21 12 -5
-5z"/>
<path d="M4845 720 c3 -5 8 -10 11 -10 2 0 4 5 4 10 0 6 -5 10 -11 10 -5 0 -7
-4 -4 -10z"/>
<path d="M4713 712 c-7 -4 -11 -18 -9 -29 3 -16 1 -20 -10 -16 -18 7 -18 -8 0
-33 12 -16 17 -17 28 -6 11 11 10 12 -4 7 -21 -8 -24 8 -4 24 9 8 15 8 18 2 2
-7 8 -7 18 -1 13 8 12 10 -2 10 -10 0 -18 5 -18 10 0 6 7 10 15 10 9 0 12 6 9
15 -7 16 -22 19 -41 7z"/>
<path d="M2496 700 c6 -6 21 -6 39 -1 30 9 30 9 -9 10 -26 1 -37 -2 -30 -9z"/>
<path d="M4915 690 c10 -11 20 -20 23 -20 3 0 -3 9 -13 20 -10 11 -20 20 -23
20 -3 0 3 -9 13 -20z"/>
<path d="M79 669 c-18 -4 -23 -11 -21 -30 6 -56 0 -197 -9 -234 -6 -22 -19
-54 -30 -71 -16 -27 -19 -51 -19 -183 l0 -151 204 0 c177 0 205 2 210 16 3 9
11 68 16 132 6 63 17 144 25 179 22 96 106 290 147 340 8 10 -43 12 -245 10
-140 -1 -265 -5 -278 -8z"/>
<path d="M2475 671 c-6 -5 -19 -11 -30 -14 -18 -4 -17 -5 3 -6 13 0 30 6 38
14 16 16 5 22 -11 6z"/>
<path d="M2518 673 c7 -3 16 -2 19 1 4 3 -2 6 -13 5 -11 0 -14 -3 -6 -6z"/>
<path d="M2450 620 c0 -5 5 -10 10 -10 6 0 10 5 10 10 0 6 -4 10 -10 10 -5 0
-10 -4 -10 -10z"/>
<path d="M4665 620 c-3 -5 1 -10 10 -10 9 0 13 5 10 10 -3 6 -8 10 -10 10 -2
0 -7 -4 -10 -10z"/>
<path d="M2365 590 c-3 -6 1 -7 9 -4 18 7 21 14 7 14 -6 0 -13 -4 -16 -10z"/>
<path d="M4010 578 c-10 -21 -10 -21 3 -6 8 10 18 14 22 10 5 -4 5 -1 1 6 -10
17 -14 15 -26 -10z"/>
<path d="M4685 590 c-3 -5 -2 -10 4 -10 5 0 13 5 16 10 3 6 2 10 -4 10 -5 0
-13 -4 -16 -10z"/>
<path d="M4638 582 c-10 -2 -18 -8 -18 -13 0 -11 11 -11 30 1 18 11 11 18 -12
12z"/>
<path d="M4665 550 c3 -5 8 -10 11 -10 2 0 4 5 4 10 0 6 -5 10 -11 10 -5 0 -7
-4 -4 -10z"/>
<path d="M3993 544 c-7 -3 -33 -34 -58 -70 -25 -35 -51 -64 -57 -64 -6 0 -9
-3 -5 -6 3 -4 -13 -34 -37 -68 -64 -91 -156 -284 -156 -328 0 -4 16 -8 35 -8
36 0 61 24 68 65 2 11 8 30 15 42 7 12 14 30 15 40 6 30 38 97 55 117 10 10
16 20 14 22 -7 8 10 64 19 64 5 0 9 5 9 11 0 6 8 23 18 37 10 15 25 43 32 62
7 19 22 47 32 63 11 15 18 27 16 26 -2 0 -8 -3 -15 -5z"/>
<path d="M2383 445 c-3 -9 -3 -18 -1 -21 3 -3 8 4 11 16 6 23 -1 27 -10 5z"/>
<path d="M4526 231 c-4 -5 3 -7 14 -4 23 6 26 13 6 13 -8 0 -17 -4 -20 -9z"/>
<path d="M2246 69 c-8 -42 0 -50 9 -9 4 17 5 34 2 36 -2 3 -7 -10 -11 -27z"/>
</g>
</svg>
